<?xml version="1.0" encoding="UTF-8" standalone="no"?>
<!-- Created with Inkscape (http://www.inkscape.org/) -->

<svg
   width="507mm"
   height="100mm"
   viewBox="46 54 507 100"
   version="1.1"
   id="svg2158"
   inkscape:version="1.2.1 (9c6d41e, 2022-07-14)"
   sodipodi:docname="wenpe_logo_mini_blue_yellow.svg"
   xmlns:inkscape="http://www.inkscape.org/namespaces/inkscape"
   xmlns:sodipodi="http://sodipodi.sourceforge.net/DTD/sodipodi-0.dtd"
   xmlns="http://www.w3.org/2000/svg"
   xmlns:svg="http://www.w3.org/2000/svg">
  <sodipodi:namedview
     id="namedview2160"
     pagecolor="#ffffff"
     bordercolor="#000000"
     borderopacity="0.25"
     inkscape:showpageshadow="2"
     inkscape:pageopacity="0.0"
     inkscape:pagecheckerboard="0"
     inkscape:deskcolor="#d1d1d1"
     inkscape:document-units="mm"
     showgrid="false"
     inkscape:zoom="0.31447142"
     inkscape:cx="1206.7869"
     inkscape:cy="445.19149"
     inkscape:window-width="1440"
     inkscape:window-height="872"
     inkscape:window-x="640"
     inkscape:window-y="1440"
     inkscape:window-maximized="0"
     inkscape:current-layer="layer1" />
  <defs
     id="defs2155" />
  <g
     inkscape:label="Layer 1"
     inkscape:groupmode="layer"
     id="layer1">
    <path
       id="path10407"
       style="fill:#0066ff;fill-opacity:0.541176;stroke-width:0.30863371008540463"
       d="M 81.8419 154.48 L 47.2919 54.9285 L 116.392 54.9285 Z" />
    <path
       id="path10407-4"
       style="fill:#0066ff;fill-opacity:0.541176;stroke-width:0.30863371008540463"
       d="M 112.111 154.48 L 77.5609 54.9285 L 146.661 54.9285 Z" />
    <path
       id="path10407-44-8-0"
       style="fill:#0066ff;fill-opacity:0.541176;stroke-width:0.3331907750189544"
       d="M 269.588 54.8844 L 349.832 154.436 L 269.299 154.436 Z" />
    <path
       id="rect18308-71-9-9-0-3"
       style="fill:#0066ff;fill-opacity:0.541176;stroke-dasharray:0.184899, 2.21878;stroke-width:0.184698"
       d="M 349.845 54.6421 L 349.845 154.185 L 324.902 154.185 L 324.902 54.6421 Z" />
    <path
       id="rect18308-71-9-9-6"
       style="fill:#0066ff;fill-opacity:0.541176;stroke-dasharray:0.184899, 2.21878;stroke-width:0.184698"
       d="M 395.988 54.7004 L 395.988 154.244 L 371.045 154.244 L 371.045 54.7004 Z" />
    <path
       id="path22991"
       style="fill:#0066ff;fill-opacity:0.541176;stroke-width:0.235004;stroke-dasharray:0.235261, 2.82311"
       d="M 451.20486,94.608757 A 39.712669,39.712669 0 0 1 411.49219,134.32143 39.712669,39.712669 0 0 1 371.77952,94.608757 39.712669,39.712669 0 0 1 411.49219,54.896088 39.712669,39.712669 0 0 1 451.20486,94.608757 Z" />
    <path
       id="rect18308-71-8"
       style="fill:#0066ff;fill-opacity:0.541176;stroke-width:0.165614"
       d="m 168.12572,55.01825 h 79.97365 v 24.962377 h -79.97365 z" />
    <path
       id="rect18308-71-9-2"
       style="fill:#0066ff;fill-opacity:0.541176;stroke-width:0.184698"
       d="M 192.803 54.6513 L 192.803 154.195 L 167.86 154.195 L 167.86 54.6513 Z" />
    <path
       id="rect18308-71-7-3-9"
       style="fill:#0066ff;fill-opacity:0.541176;stroke-width:0.165614"
       d="m 168.12572,129.51257 h 79.97365 v 24.96238 h -79.97365 z" />
    <path
       id="rect26209"
       style="fill:#ffd529;fill-opacity:0.541176;stroke-width:0.140827"
       d="m 207.86348,92.206268 h 24.77767 v 24.777662 h -24.77767 z" />
    <path
       id="rect18308-71-8-1"
       style="fill:#0066ff;fill-opacity:0.541176;stroke-width:0.165614"
       d="m 472.67014,54.783989 h 79.97365 v 24.962378 h -79.97365 z" />
    <path
       id="rect18308-71-9-2-2"
       style="fill:#0066ff;fill-opacity:0.541176;stroke-width:0.184698"
       d="M 497.348 54.417 L 497.348 153.96 L 472.405 153.96 L 472.405 54.417 Z" />
    <path
       id="rect18308-71-7-3-9-3"
       style="fill:#0066ff;fill-opacity:0.541176;stroke-width:0.165614"
       d="m 472.67014,129.27831 h 79.97365 v 24.96237 h -79.97365 z" />
    <path
       id="rect26209-7"
       style="fill:#ffd529;fill-opacity:0.541176;stroke-width:0.140827"
       d="m 512.4079,91.972008 h 24.77766 V 116.74967 H 512.4079 Z" />
  </g>
</svg>
