<?xml version="1.0" encoding="UTF-8" standalone="no"?>
<!-- Created with Inkscape (http://www.inkscape.org/) -->

<svg
   width="300mm"
   height="117mm"
   viewBox="0 0 300 117"
   version="1.1"
   id="svg2158"
   inkscape:version="1.2.1 (9c6d41e, 2022-07-14)"
   sodipodi:docname="wenpe_typograph.svg"
   inkscape:export-filename="../../../../wenpe_typograph.svg"
   inkscape:export-xdpi="96"
   inkscape:export-ydpi="96"
   xmlns:inkscape="http://www.inkscape.org/namespaces/inkscape"
   xmlns:sodipodi="http://sodipodi.sourceforge.net/DTD/sodipodi-0.dtd"
   xmlns="http://www.w3.org/2000/svg"
   xmlns:svg="http://www.w3.org/2000/svg">
  <sodipodi:namedview
     id="namedview2160"
     pagecolor="#ffffff"
     bordercolor="#000000"
     borderopacity="0.25"
     inkscape:showpageshadow="2"
     inkscape:pageopacity="0.0"
     inkscape:pagecheckerboard="0"
     inkscape:deskcolor="#d1d1d1"
     inkscape:document-units="mm"
     showgrid="false"
     inkscape:zoom="0.59221748"
     inkscape:cx="505.72638"
     inkscape:cy="246.53105"
     inkscape:window-width="1440"
     inkscape:window-height="872"
     inkscape:window-x="639"
     inkscape:window-y="1440"
     inkscape:window-maximized="0"
     inkscape:current-layer="text3213" />
  <defs
     id="defs2155" />
  <g
     inkscape:label="Layer 1"
     inkscape:groupmode="layer"
     id="layer1">
    <g
       aria-label="WENPE"
       id="text3213"
       style="font-size:83.4982px;font-family:Inter;-inkscape-font-specification:'Inter, @wght=700';font-variation-settings:'wght' 700;stroke-width:0.434886">
      <path
         d="M 19.008322,61.421143 1.6326314,0.69517933 H 15.65772 L 25.709527,42.889049 H 26.2136 L 37.303205,0.69517933 H 49.312001 L 60.371954,42.978003 h 0.533725 L 70.957486,0.69517933 H 84.982574 L 67.606883,61.421143 H 55.094014 L 43.529988,21.717986 H 43.055566 L 31.521191,61.421143 Z"
         id="path578" />
      <path
         d="M 91.831978,61.421143 V 0.69517933 H 132.75084 V 11.280711 h -28.07983 v 14.469858 h 25.97458 v 10.585532 h -25.97458 v 14.49951 h 28.19843 v 10.585532 z"
         id="path580" />
      <path
         d="M 193.77321,0.69517933 V 61.421143 h -11.0896 l -26.41935,-38.22059 h -0.44477 v 38.22059 H 142.98045 V 0.69517933 h 11.26752 L 180.45976,38.886117 h 0.53372 V 0.69517933 Z"
         id="path582" />
      <path
         d="M 204.35869,61.421143 V 0.69517933 h 23.95829 q 6.90876,0 11.77158,2.63897007 4.86283,2.6093187 7.41284,7.2645806 2.57967,4.62561 2.57967,10.674486 0,6.048875 -2.60932,10.674485 -2.60932,4.625611 -7.56109,7.205278 -4.92213,2.579668 -11.91985,2.579668 H 212.72037 V 31.443628 h 13.19485 q 3.70642,0 6.10818,-1.275008 2.43141,-1.304659 3.61746,-3.587813 1.21571,-2.312805 1.21571,-5.307591 0,-3.024438 -1.21571,-5.27794 -1.18605,-2.283154 -3.61746,-3.528511 -2.43141,-1.275008 -6.16748,-1.275008 h -8.6582 v 50.229386 z"
         id="path584" />
      <path
         d="M 258.44266,61.421143 V 0.69517933 h 40.91886 V 11.280711 h -28.07983 v 14.469858 h 25.97458 v 10.585532 h -25.97458 v 14.49951 h 28.19843 v 10.585532 z"
         id="path586" />
    </g>
    <g
       aria-label="PLAYGROUND"
       id="text3213-4"
       style="font-size:44.3202px;font-family:Inter;-inkscape-font-specification:'Inter, @wght=500';font-variation-settings:'wght' 500;stroke-width:0.434886">
      <path
         d="M 0.67614278,116.42207 V 84.189199 H 12.1654 q 3.761551,0 6.232528,1.369268 2.470977,1.369267 3.698596,3.745812 1.22762,2.360807 1.22762,5.319684 0,2.974616 -1.243358,5.35116 -1.227619,2.360807 -3.714335,3.745817 -2.470978,1.36926 -6.21679,1.36926 H 4.2488295 v -4.12354 h 7.4601475 q 2.376545,0 3.855984,-0.81841 1.479438,-0.834152 2.171941,-2.266375 0.692503,-1.432222 0.692503,-3.257912 0,-1.82569 -0.692503,-3.242174 -0.692503,-1.416484 -2.18768,-2.219158 -1.479439,-0.802674 -3.9032,-0.802674 H 5.5394036 v 28.062113 z"
         id="path589" />
      <path
         d="M 29.005794,116.42207 V 84.189199 h 4.86326 v 28.046381 h 14.605522 v 4.18649 z"
         id="path591" />
      <path
         d="M 58.348875,116.42207 H 53.186579 L 64.786007,84.189199 h 5.618719 L 82.004153,116.42207 H 76.841857 L 67.729145,90.043999 h -0.251819 z m 0.865629,-12.62244 h 16.745985 v 4.09206 H 59.214504 Z"
         id="path593" />
      <path
         d="m 80.886662,84.189199 h 5.524287 l 8.420208,14.652737 h 0.346252 l 8.420211,-14.652737 h 5.52428 L 97.428044,103.76815 v 12.65392 h -4.847522 v -12.65392 z"
         id="path595" />
      <path
         d="m 133.86939,94.372143 q -0.45643,-1.432222 -1.22762,-2.565409 -0.75546,-1.148926 -1.80995,-1.9516 -1.0545,-0.818413 -2.40803,-1.243358 -1.33779,-0.424945 -2.94313,-0.424945 -2.7228,0 -4.91048,1.400745 -2.18768,1.400745 -3.46252,4.107803 -1.25909,2.691319 -1.25909,6.594521 0,3.91894 1.27483,6.62599 1.27484,2.70706 3.49399,4.10781 2.21916,1.40074 5.05213,1.40074 2.62836,0 4.57996,-1.07023 1.96734,-1.07023 3.03757,-3.02183 1.08598,-1.96734 1.08598,-4.62718 l 1.25909,0.23608 h -9.22288 v -4.013373 h 12.66966 v 3.667123 q 0,4.06058 -1.73126,7.05094 -1.71552,2.97461 -4.75309,4.5957 -3.02183,1.62109 -6.92503,1.62109 -4.37536,0 -7.68049,-2.01456 -3.28939,-2.01455 -5.13082,-5.71315 -1.84143,-3.71433 -1.84143,-8.81367 0,-3.855988 1.07023,-6.925037 1.07024,-3.069048 3.0061,-5.209512 1.9516,-2.156203 4.57996,-3.28939 2.6441,-1.148926 5.77611,-1.148926 2.61262,0 4.86326,0.771197 2.26637,0.771197 4.02911,2.187681 1.77847,1.416483 2.94314,3.368083 1.16466,1.935861 1.57387,4.296667 z"
         id="path597" />
      <path
         d="M 145.24844,116.42207 V 84.189199 h 11.48926 q 3.74581,0 6.21679,1.290574 2.48671,1.290574 3.71433,3.572687 1.22762,2.266374 1.22762,5.24099 0,2.958877 -1.24336,5.209512 -1.22762,2.234898 -3.71433,3.478258 -2.47098,1.24335 -6.21679,1.24335 h -8.70351 v -4.18649 h 8.26282 q 2.36081,0 3.84025,-0.676766 1.49518,-0.676765 2.18768,-1.967339 0.6925,-1.290574 0.6925,-3.100525 0,-1.82569 -0.70824,-3.16348 -0.6925,-1.337791 -2.18768,-2.046033 -1.47944,-0.72398 -3.88746,-0.72398 h -6.10662 v 28.062113 z m 15.91183,-14.54256 7.96379,14.54256 h -5.54003 l -7.8064,-14.54256 z"
         id="path599" />
      <path
         d="m 201.82907,100.30564 q 0,5.16229 -1.88865,8.87663 -1.88864,3.69859 -5.17803,5.69741 -3.27365,1.98308 -7.44441,1.98308 -4.1865,0 -7.47589,-1.98308 -3.27365,-1.99882 -5.16229,-5.71315 -1.88865,-3.71434 -1.88865,-8.86089 0,-5.1623 1.88865,-8.860896 1.88864,-3.714335 5.16229,-5.697413 3.28939,-1.998816 7.47589,-1.998816 4.17076,0 7.44441,1.998816 3.28939,1.983078 5.17803,5.697413 1.88865,3.698596 1.88865,8.860896 z m -4.81605,0 q 0,-3.934681 -1.27483,-6.626 -1.2591,-2.707058 -3.46252,-4.092064 -2.18768,-1.400745 -4.95769,-1.400745 -2.78575,0 -4.97343,1.400745 -2.18768,1.385006 -3.46252,4.092064 -1.2591,2.691319 -1.2591,6.626 0,3.93467 1.2591,6.64173 1.27484,2.69132 3.46252,4.09207 2.18768,1.385 4.97343,1.385 2.77001,0 4.95769,-1.385 2.20342,-1.40075 3.46252,-4.09207 1.27483,-2.70706 1.27483,-6.64173 z"
         id="path601" />
      <path
         d="m 228.60059,84.189199 h 4.87899 v 21.200041 q 0,3.38382 -1.58961,5.99645 -1.5896,2.59688 -4.46979,4.09206 -2.88018,1.47944 -6.7519,1.47944 -3.85599,0 -6.73617,-1.47944 -2.88018,-1.49518 -4.46979,-4.09206 -1.58961,-2.61263 -1.58961,-5.99645 V 84.189199 h 4.86326 v 20.806571 q 0,2.18768 0.96006,3.88746 0.9758,1.69978 2.75427,2.67558 1.77848,0.96006 4.21798,0.96006 2.45523,0 4.23371,-0.96006 1.79421,-0.9758 2.73853,-2.67558 0.96007,-1.69978 0.96007,-3.88746 z"
         id="path603" />
      <path
         d="m 266.57805,84.189199 v 32.232871 h -4.4698 L 245.72426,92.782534 h -0.29904 v 23.639536 h -4.86326 V 84.189199 h 4.50127 l 16.39974,23.671021 H 261.762 V 84.189199 Z"
         id="path605" />
      <path
         d="M 284.09519,116.42207 H 273.66043 V 84.189199 h 10.76527 q 4.73735,0 8.13691,1.935861 3.39957,1.920123 5.20952,5.524287 1.82569,3.588425 1.82569,8.609073 0,5.03639 -1.84143,8.65629 -1.82569,3.6199 -5.28821,5.5715 -3.46251,1.93586 -8.37299,1.93586 z m -5.5715,-4.24945 h 5.30394 q 3.68286,0 6.12236,-1.385 2.4395,-1.40075 3.65138,-4.04485 1.21188,-2.65984 1.21188,-6.48435 0,-3.793028 -1.21188,-6.437131 -1.19614,-2.644103 -3.57269,-4.013371 -2.37654,-1.369268 -5.90201,-1.369268 h -5.60298 z"
         id="path607" />
    </g>
  </g>
</svg>
